# xmcd
#
# Track frame offsets:
#	150
#	15180
#	27052
#	38320
#	54442
#	67692
#	79702
#	89340
#	98527
#	110137
#	121597
#	136327
#	146947
#	159437
#	171827
#	181777
#	193834
#	210585
#	224305
#	235077
#
# Disc length: 3326 seconds
#
# Revision: 1
# Processed by: cddbd v1.5.2PL0 Copyright (c) Steve Scherf et al.
# Submitted via: FairStars CD Ripper 1.60
#
DISCID=f70cfc14
DTITLE=The Lettermen - Super Best
DYEAR=1993
DGENRE=Country
TTITLE0=Love
TTITLE1=Put your head on my shoulder
TTITLE2=When I fall in love
TTITLE3=I honestly love you
TTITLE4=The end of the world
TTITLE5=I can't help falling in love with you
TTITLE6=Till
TTITLE7=Theme from a summer place
TTITLE8=Because
TTITLE9=Mr Lonely
TTITLE10=A world without love
TTITLE11=Hurt so bad
TTITLE12=Feelings
TTITLE13=Love letters
TTITLE14=Sealed with a kiss
TTITLE15=Love is a many splendored things
TTITLE16=Love will keep us together
TTITLE17=Everybody love somebody
TTITLE18=The way you look tonight
TTITLE19=Goin' out of my head/ can't take my eyes out of you
EXTD=
EXTT0=
EXTT1=
EXTT2=
EXTT3=
EXTT4=
EXTT5=
EXTT6=
EXTT7=
EXTT8=
EXTT9=
EXTT10=
EXTT11=
EXTT12=
EXTT13=
EXTT14=
EXTT15=
EXTT16=
EXTT17=
EXTT18=
EXTT19=
PLAYORDER=
